<svg width="53" height="54" viewBox="0 0 53 54" fill="none" xmlns="http://www.w3.org/2000/svg">
<path d="M43.4882 35.8421C42.0445 34.902 40.1286 35.3347 39.2059 36.8042C35.8894 42.0898 30.2468 45.2459 24.1077 45.2459C14.2317 45.2459 6.20253 37.0623 6.20253 27.003C6.20253 16.9436 14.2317 8.75999 24.1077 8.75999C29.3458 8.75999 34.2096 11.0713 37.5851 15.0253L33.8354 17.9306L44.8053 19.4456L46.3052 8.26575L42.5425 11.1813C37.9881 5.65521 31.302 2.4375 24.1077 2.4375C10.8159 2.43897 0 13.4604 0 27.0015C0 40.5425 10.8159 51.564 24.1077 51.564C32.3743 51.564 39.9717 47.3167 44.431 40.2038C45.3508 38.7342 44.932 36.7837 43.4882 35.8421Z" fill="#8C6005"/>
<path d="M37.9365 30.0036C40.2022 28.2393 42.285 26.3943 42.285 23.7295C42.285 21.7247 40.8873 20.1774 38.292 20.1774C36.8353 20.1774 35.3599 20.6585 34.3365 21.3038L34.9065 23.3687C35.5773 22.9478 36.4611 22.6046 37.6025 22.6046C38.744 22.6046 39.3716 23.2661 39.3716 24.19C39.3716 25.752 37.7206 27.2772 35.1598 29.4038L32.4019 31.5729L32.0708 33.4369H40.8082L41.2587 30.9701L36.6712 30.9672V30.929L37.9365 30.0036Z" fill="#8C6005"/>
<path d="M51.5044 28.0589L52.9208 20.3959H49.4373L43.3341 28.339L42.9829 30.2632H48.434L47.8439 33.4281H50.4996L51.0912 30.2632H52.6098L52.9999 28.053H51.5044V28.0589ZM49.4388 25.2313L48.8486 28.0604H46.1756L46.1957 28.0208L48.3045 25.2548C48.9148 24.3909 49.4071 23.5726 49.9771 22.6882H50.0563C49.8519 23.5066 49.6158 24.4071 49.4388 25.2313Z" fill="#8C6005"/>
<path d="M31.5553 19.3297C31.2444 19.0291 30.7507 19.0408 30.4571 19.3576L25.7962 24.322C25.3082 24.0008 24.7324 23.8146 24.1063 23.8146C24.0717 23.8146 24.03 23.819 23.994 23.8204L17.6446 17.6314C16.8745 16.8746 15.6467 16.904 14.9068 17.6915C14.167 18.4791 14.1958 19.7316 14.9659 20.481L21.0345 26.3943C20.9971 26.5908 20.9769 26.7932 20.9769 27.0029C20.9769 27.6893 21.19 28.3199 21.5498 28.842L19.6469 30.8703C19.3533 31.1857 19.3648 31.6843 19.6742 31.9879C19.8239 32.136 20.0168 32.2049 20.2083 32.2049C20.4156 32.2049 20.6156 32.1228 20.7697 31.9615L22.7345 29.8672C23.1505 30.0769 23.6154 30.1957 24.1091 30.1957C24.3625 30.1957 24.6072 30.1649 24.8433 30.1048L26.2726 31.4966C26.6483 31.8603 27.1291 32.0407 27.6113 32.0407C28.1208 32.0407 28.6318 31.8368 29.0147 31.4335C29.7532 30.6459 29.7258 29.3964 28.9528 28.6455L27.2428 26.9765C27.2399 26.4324 27.1017 25.9191 26.8613 25.4747L31.5813 20.4443C31.8735 20.1275 31.8619 19.6333 31.5553 19.3297Z" fill="#8C6005"/>
</svg>
