<svg width="56" height="56" viewBox="0 0 56 56" fill="none" xmlns="http://www.w3.org/2000/svg">
<path d="M45.9498 37.1696C44.4243 36.1947 42.4 36.6434 41.4251 38.1673C37.9209 43.6487 31.9589 46.9217 25.4722 46.9217C15.0373 46.9217 6.55361 38.435 6.55361 28.0031C6.55361 17.5711 15.0373 9.08442 25.4722 9.08442C31.0068 9.08442 36.146 11.4814 39.7126 15.5818L35.7506 18.5947L47.3414 20.1658L48.9262 8.57188L44.9506 11.5955C40.1384 5.86465 33.0738 2.52777 25.4722 2.52777C11.4281 2.52929 0 13.9589 0 28.0015C0 42.0441 11.4281 53.4738 25.4722 53.4738C34.2068 53.4738 42.2342 49.0692 46.946 41.6928C47.9179 40.1688 47.4753 38.146 45.9498 37.1696Z" fill="#8C6005"/>
<path d="M40.0835 31.1149C42.4774 29.2852 44.6781 27.3719 44.6781 24.6084C44.6781 22.5293 43.2013 20.9247 40.4591 20.9247C38.92 20.9247 37.361 21.4236 36.2797 22.0928L36.8819 24.2342C37.5907 23.7977 38.5245 23.4419 39.7306 23.4419C40.9367 23.4419 41.5998 24.1278 41.5998 25.086C41.5998 26.7057 39.8553 28.2875 37.1496 30.4928L34.2356 32.7422L33.8857 34.6753H43.1177L43.5937 32.1171L38.7466 32.1141V32.0746L40.0835 31.1149Z" fill="#8C6005"/>
<path d="M54.4198 29.0981L55.9164 21.1514H52.2358L45.7871 29.3886L45.416 31.3841H51.1757L50.5521 34.6662H53.3582L53.9833 31.3841H55.5879L56 29.0921H54.4198V29.0981ZM52.2373 26.1658L51.6137 29.0997H48.7894L48.8107 29.0586L51.0388 26.1902C51.6837 25.2943 52.2038 24.4457 52.8061 23.5286H52.8898C52.6738 24.3772 52.4244 25.3111 52.2373 26.1658Z" fill="#8C6005"/>
<path d="M33.3416 20.0457C33.0131 19.7339 32.4914 19.746 32.1811 20.0745L27.2564 25.2228C26.7408 24.8898 26.1325 24.6966 25.4709 24.6966C25.4344 24.6966 25.3903 24.7012 25.3522 24.7027L18.6435 18.2844C17.8298 17.4996 16.5325 17.5301 15.7507 18.3468C14.969 19.1635 14.9994 20.4624 15.8131 21.2396L22.2252 27.3719C22.1857 27.5757 22.1644 27.7856 22.1644 28.0031C22.1644 28.7149 22.3895 29.3688 22.7697 29.9103L20.7591 32.0137C20.4488 32.3407 20.461 32.8578 20.788 33.1726C20.9462 33.3263 21.15 33.3977 21.3522 33.3977C21.5713 33.3977 21.7827 33.3126 21.9454 33.1453L24.0214 30.9734C24.461 31.1909 24.9522 31.3141 25.4739 31.3141C25.7416 31.3141 26.0002 31.2822 26.2496 31.2198L27.7598 32.6631C28.1568 33.0403 28.6648 33.2274 29.1743 33.2274C29.7127 33.2274 30.2526 33.016 30.6572 32.5977C31.4374 31.781 31.4085 30.4852 30.5918 29.7065L28.7849 27.9757C28.7819 27.4114 28.6359 26.8791 28.3819 26.4183L33.369 21.2015C33.6777 20.873 33.6656 20.3605 33.3416 20.0457Z" fill="#8C6005"/>
</svg>
