<svg width="108" height="108" viewBox="0 0 108 108" fill="none" xmlns="http://www.w3.org/2000/svg">
<path d="M31.3788 61.6721C34.4138 61.6721 37.3475 61.4761 40.1236 61.1112V30.6827C37.3478 30.318 34.4138 30.1219 31.3788 30.1219C14.0491 30.1219 0.000488281 36.4936 0.000488281 44.3537V47.4401C0.000488281 55.3 14.0491 61.6721 31.3788 61.6721Z" fill="#7C4B00"/>
<path d="M31.3788 77.5608C34.4138 77.5608 37.3475 77.3648 40.1236 77.0004V68.0812C37.347 68.4459 34.4146 68.6446 31.3788 68.6446C16.2518 68.6446 3.62612 63.7895 0.660427 57.3278C0.228536 58.269 0.000488281 59.2436 0.000488281 60.2426V63.3291C0.000488281 71.1892 14.0491 77.5608 31.3788 77.5608Z" fill="#7C4B00"/>
<path d="M40.1231 84.6636V83.9703C37.3465 84.3349 34.4142 84.5337 31.3783 84.5337C16.2513 84.5337 3.62563 79.6785 0.659939 73.2168C0.228047 74.1578 0 75.1323 0 76.1314V79.2178C0 87.0782 14.0486 93.4499 31.3783 93.4499C34.8439 93.4499 38.1772 93.1944 41.2943 92.7238C40.5217 91.1433 40.1231 89.4765 40.1231 87.7497V84.6636Z" fill="#7C4B00"/>
<path d="M76.6219 6.01831C59.2922 6.01831 45.2437 12.3899 45.2437 20.2501V23.3365C45.2437 31.1966 59.2922 37.5682 76.6219 37.5682C93.9514 37.5682 108 31.1966 108 23.3365V20.2501C108 12.3899 93.9514 6.01831 76.6219 6.01831Z" fill="#7C4B00"/>
<path d="M76.6219 44.5409C61.495 44.5409 48.8693 39.686 45.9036 33.224C45.4717 34.165 45.2437 35.1395 45.2437 36.1389V39.2253C45.2437 47.0854 59.2922 53.4571 76.6219 53.4571C93.9514 53.4571 108 47.0854 108 39.2253V36.1389C108 35.1395 107.772 34.165 107.34 33.224C104.375 39.686 91.7489 44.5409 76.6219 44.5409Z" fill="#7C4B00"/>
<path d="M76.6219 60.43C61.495 60.43 48.8693 55.5749 45.9036 49.1132C45.4717 50.0541 45.2437 51.0287 45.2437 52.028V55.1145C45.2437 62.9749 59.2922 69.3465 76.6219 69.3465C93.9514 69.3465 108 62.9749 108 55.1145V52.028C108 51.0287 107.772 50.0541 107.34 49.1132C104.375 55.5751 91.7489 60.43 76.6219 60.43Z" fill="#7C4B00"/>
<path d="M76.6219 77.1767C61.495 77.1767 48.8693 72.3216 45.9036 65.8599C45.4717 66.8011 45.2437 67.7754 45.2437 68.7745V71.8612C45.2437 79.7213 59.2922 86.0929 76.6219 86.0929C93.9514 86.0929 108 79.7213 108 71.8612V68.7745C108 67.7754 107.772 66.8006 107.34 65.8599C104.375 72.3213 91.7489 77.1767 76.6219 77.1767Z" fill="#7C4B00"/>
<path d="M76.6219 93.0657C61.495 93.0657 48.8693 88.2108 45.9036 81.749C45.4717 82.6903 45.2437 83.6651 45.2437 84.6636V87.7501C45.2437 95.6102 59.2922 101.982 76.6219 101.982C93.9514 101.982 108 95.6102 108 87.7501V84.6634C108 83.6643 107.772 82.6895 107.34 81.7488C104.375 88.2105 91.7489 93.0657 76.6219 93.0657Z" fill="#7C4B00"/>
</svg>
