<svg width="108" height="108" viewBox="0 0 108 108" fill="none" xmlns="http://www.w3.org/2000/svg">
<path d="M31.3785 61.6723C34.4136 61.6723 37.3473 61.4762 40.1234 61.1113V30.6828C37.3475 30.3181 34.4136 30.1221 31.3785 30.1221C14.0488 30.1221 0.000244141 36.4937 0.000244141 44.3538V47.4403C0.000244141 55.3001 14.0488 61.6723 31.3785 61.6723Z" fill="#7C4B00"/>
<path d="M31.3785 77.5607C34.4136 77.5607 37.3473 77.3647 40.1234 77.0003V68.0811C37.3467 68.4458 34.4144 68.6445 31.3785 68.6445C16.2516 68.6445 3.62587 63.7894 0.660183 57.3276C0.228291 58.2689 0.000244141 59.2435 0.000244141 60.2425V63.329C0.000244141 71.1891 14.0488 77.5607 31.3785 77.5607Z" fill="#7C4B00"/>
<path d="M40.1231 84.6636V83.9703C37.3465 84.3349 34.4142 84.5337 31.3783 84.5337C16.2513 84.5337 3.62563 79.6785 0.659939 73.2168C0.228047 74.1578 0 75.1323 0 76.1314V79.2178C0 87.0782 14.0486 93.4499 31.3783 93.4499C34.8439 93.4499 38.1772 93.1944 41.2943 92.7238C40.5217 91.1433 40.1231 89.4765 40.1231 87.7497V84.6636Z" fill="#7C4B00"/>
<path d="M76.6217 6.01831C59.292 6.01831 45.2434 12.3899 45.2434 20.2501V23.3365C45.2434 31.1966 59.292 37.5682 76.6217 37.5682C93.9511 37.5682 108 31.1966 108 23.3365V20.2501C108 12.3899 93.9511 6.01831 76.6217 6.01831Z" fill="#7C4B00"/>
<path d="M76.6217 44.541C61.4947 44.541 48.869 39.6861 45.9033 33.2241C45.4715 34.1651 45.2434 35.1397 45.2434 36.139V39.2254C45.2434 47.0856 59.292 53.4572 76.6217 53.4572C93.9511 53.4572 108 47.0856 108 39.2254V36.139C108 35.1397 107.772 34.1651 107.34 33.2241C104.374 39.6861 91.7486 44.541 76.6217 44.541Z" fill="#7C4B00"/>
<path d="M76.6217 60.4302C61.4947 60.4302 48.869 55.575 45.9033 49.1133C45.4715 50.0542 45.2434 51.0288 45.2434 52.0281V55.1146C45.2434 62.975 59.292 69.3466 76.6217 69.3466C93.9511 69.3466 108 62.975 108 55.1146V52.0281C108 51.0288 107.772 50.0542 107.34 49.1133C104.374 55.5753 91.7486 60.4302 76.6217 60.4302Z" fill="#7C4B00"/>
<path d="M76.6217 77.1767C61.4947 77.1767 48.869 72.3216 45.9033 65.8599C45.4715 66.8011 45.2434 67.7754 45.2434 68.7745V71.8612C45.2434 79.7213 59.292 86.0929 76.6217 86.0929C93.9511 86.0929 108 79.7213 108 71.8612V68.7745C108 67.7754 107.772 66.8006 107.34 65.8599C104.374 72.3213 91.7486 77.1767 76.6217 77.1767Z" fill="#7C4B00"/>
<path d="M76.6217 93.0657C61.4947 93.0657 48.869 88.2108 45.9033 81.749C45.4715 82.6903 45.2434 83.6651 45.2434 84.6636V87.7501C45.2434 95.6102 59.292 101.982 76.6217 101.982C93.9511 101.982 108 95.6102 108 87.7501V84.6634C108 83.6643 107.772 82.6895 107.34 81.7488C104.374 88.2105 91.7486 93.0657 76.6217 93.0657Z" fill="#7C4B00"/>
</svg>
