<svg width="21" height="22" viewBox="0 0 21 22" fill="none" xmlns="http://www.w3.org/2000/svg">
<g clip-path="url(#clip0_2_240)">
<path d="M0 22L1.51148 16.1176C0.654576 14.5071 0.208274 12.7038 0.208274 10.8694C0.202324 4.87507 4.86767 0 10.6041 0C16.3406 0 21.0059 4.87507 21.0059 10.8694C21.0059 16.8638 16.3406 21.7388 10.6041 21.7388C8.88439 21.7388 7.18249 21.2849 5.65911 20.4206L0 22ZM5.94474 18.2131L6.30178 18.437C7.61094 19.2516 9.09861 19.6806 10.6041 19.6806C15.2516 19.6806 19.0363 15.7258 19.0363 10.8694C19.0363 6.013 15.2516 2.05822 10.6041 2.05822C5.95664 2.05822 2.172 6.013 2.172 10.8694C2.172 12.4737 2.60045 14.0531 3.4038 15.4398L3.62397 15.8129L2.77897 19.0961L5.94474 18.2131Z" fill="white"/>
<path fill-rule="evenodd" clip-rule="evenodd" d="M14.4721 12.3805C14.0437 12.1131 13.4843 11.8146 12.9845 12.0323C12.5977 12.2002 12.3478 12.8282 12.0978 13.1516C11.9669 13.3194 11.8181 13.3443 11.6158 13.2573C10.1638 12.6541 9.05107 11.6405 8.24772 10.2414C8.11086 10.0238 8.13466 9.85591 8.30128 9.6507C8.54526 9.35223 8.84874 9.01645 8.9142 8.61226C8.97966 8.20808 8.80114 7.74172 8.64047 7.38728C8.43815 6.93335 8.21202 6.28044 7.77167 6.01927C7.36702 5.78298 6.83741 5.91356 6.48037 6.21826C5.8615 6.7468 5.56396 7.56761 5.56991 8.38841C5.56991 8.61848 5.59967 8.85477 5.65322 9.07863C5.77819 9.61961 6.01621 10.1233 6.284 10.6021C6.48632 10.9627 6.70649 11.311 6.94452 11.653C7.72406 12.7536 8.68808 13.7112 9.80681 14.4325C10.3662 14.7932 10.9672 15.1041 11.592 15.3217C12.2882 15.5642 12.9131 15.8129 13.6688 15.6637C14.4602 15.5083 15.2398 14.9984 15.5552 14.2024C15.6504 13.9661 15.692 13.705 15.6444 13.4562C15.5373 12.9339 14.8708 12.6292 14.4721 12.3805Z" fill="white"/>
</g>
<defs>
<clipPath id="clip0_2_240">
<rect width="21" height="22" fill="white"/>
</clipPath>
</defs>
</svg>
