<svg width="233" height="57" viewBox="0 0 233 57" fill="none" xmlns="http://www.w3.org/2000/svg">
<path d="M7.322 30.06C3.248 30.06 0.546 32.79 0.546 36.444C0.546 40.14 3.22 42.884 7.266 42.884C8.372 42.884 9.618 42.646 10.472 42.212L10.024 40.924C9.142 41.358 8.148 41.54 7.266 41.54C4.158 41.54 2.114 39.426 2.114 36.444C2.114 33.518 4.2 31.39 7.322 31.39C10.43 31.39 12.53 33.35 12.53 36.192C12.53 37.816 12.138 38.558 11.494 38.558C11.116 38.558 10.822 38.334 10.822 37.662V33.126H8.918V33.952C8.414 33.35 7.686 33.028 6.762 33.028C4.942 33.028 3.528 34.456 3.528 36.556C3.528 38.67 4.956 40.098 6.762 40.098C7.868 40.098 8.666 39.664 9.156 38.88C9.45 39.678 10.122 40.098 11.074 40.098C12.796 40.098 13.944 38.67 13.944 36.164C13.944 32.65 11.256 30.06 7.322 30.06ZM7.196 38.488C6.174 38.488 5.46 37.76 5.46 36.556C5.46 35.366 6.174 34.652 7.196 34.652C8.204 34.652 8.946 35.338 8.946 36.556C8.946 37.788 8.204 38.488 7.196 38.488ZM22.8502 34.904C23.6482 34.484 24.1522 33.728 24.1522 32.748C24.1522 31.222 22.8922 30.2 20.4422 30.2H15.6542V40H20.7222C23.2982 40 24.6422 39.02 24.6422 37.326C24.6422 36.094 23.9422 35.254 22.8502 34.904ZM20.1622 31.908C21.2682 31.908 21.8702 32.286 21.8702 33.056C21.8702 33.826 21.2682 34.218 20.1622 34.218H17.9082V31.908H20.1622ZM20.5542 38.292H17.9082V35.87H20.5542C21.7302 35.87 22.3602 36.262 22.3602 37.088C22.3602 37.928 21.7302 38.292 20.5542 38.292ZM33.6813 40H36.0613L31.6793 30.2H29.4393L25.0713 40H27.3953L28.2633 37.9H32.8133L33.6813 40ZM28.9913 36.178L30.5453 32.426L32.0993 36.178H28.9913ZM44.9885 30.2H42.7625L40.1445 34.554L37.5265 30.2H35.1185L38.9125 36.5V40H41.1805V36.528L44.9885 30.2ZM3.192 57H5.46V49.048H8.596V47.2H0.056V49.048H3.192V57Z" fill="#6F6F6F"/>
<path d="M19.1851 8.24L16.5651 15.52L14.0051 8.24H11.3651L8.7251 15.52L6.1851 8.24H3.2451L7.1251 19H10.1251L12.6251 12.32L15.0451 19H18.0451L21.9451 8.24H19.1851ZM26.3756 9.66V8.24H23.3956V19H26.5156V13.92C26.5156 11.86 27.6556 10.92 29.3756 10.92C29.6156 10.92 29.8156 10.94 30.0756 10.96V8.08C28.4156 8.08 27.1356 8.62 26.3756 9.66ZM46.8218 8.24L44.2018 15.52L41.6418 8.24H39.0018L36.3618 15.52L33.8218 8.24H30.8818L34.7618 19H37.7618L40.2618 12.32L42.6818 19H45.6818L49.5818 8.24H46.8218ZM64.8123 8.08C63.1923 8.08 61.7923 8.74 60.9323 9.84C60.1723 8.66 58.8923 8.08 57.3923 8.08C56.0123 8.08 54.8123 8.56 54.0123 9.48V8.24H51.0323V19H54.1523V13.6C54.1523 11.68 55.1323 10.78 56.5123 10.78C57.8123 10.78 58.5523 11.58 58.5523 13.32V19H61.6723V13.6C61.6723 11.68 62.6523 10.78 64.0523 10.78C65.3123 10.78 66.0923 11.58 66.0923 13.32V19H69.2123V12.84C69.2123 9.56 67.3723 8.08 64.8123 8.08ZM80.266 8.24V9.62C79.446 8.58 78.206 8.08 76.706 8.08C73.726 8.08 71.326 10.14 71.326 13.28C71.326 16.42 73.726 18.48 76.706 18.48C78.106 18.48 79.286 18.04 80.106 17.14V17.6C80.106 19.54 79.146 20.54 76.946 20.54C75.566 20.54 74.066 20.06 73.146 19.32L71.906 21.56C73.166 22.54 75.146 23.04 77.186 23.04C81.066 23.04 83.226 21.2 83.226 17.2V8.24H80.266ZM77.326 15.92C75.686 15.92 74.486 14.86 74.486 13.28C74.486 11.7 75.686 10.64 77.326 10.64C78.966 10.64 80.146 11.7 80.146 13.28C80.146 14.86 78.966 15.92 77.326 15.92ZM92.6699 8.08C91.2099 8.08 89.9499 8.58 89.1099 9.5V8.24H86.1299V19H89.2499V13.68C89.2499 11.7 90.3299 10.78 91.8299 10.78C93.2099 10.78 94.0099 11.58 94.0099 13.32V19H97.1299V12.84C97.1299 9.56 95.2099 8.08 92.6699 8.08ZM103.578 19.16C106.798 19.16 108.658 17.74 108.658 15.74C108.658 11.5 102.158 13.28 102.158 11.44C102.158 10.88 102.758 10.44 104.158 10.44C105.138 10.44 106.198 10.64 107.258 11.24L108.298 9.02C107.278 8.42 105.638 8.08 104.158 8.08C101.018 8.08 99.1781 9.52 99.1781 11.56C99.1781 15.86 105.678 14.06 105.678 15.82C105.678 16.42 105.138 16.8 103.698 16.8C102.378 16.8 100.918 16.38 99.9581 15.76L98.9181 18C99.9181 18.66 101.758 19.16 103.578 19.16ZM113.383 19.24C116.683 19.24 118.423 17.54 118.423 14.08V5H110.283V7.6H115.203V14.26C115.203 15.8 114.523 16.58 113.223 16.58C112.223 16.58 111.383 16.06 110.623 15.04L108.823 17.2C109.843 18.52 111.503 19.24 113.383 19.24ZM131.263 5V13.5L124.303 5H121.623V19H124.823V10.5L131.803 19H134.463V5H131.263ZM148.056 11.72C149.196 11.12 149.916 10.04 149.916 8.64C149.916 6.46 148.116 5 144.616 5H137.776V19H145.016C148.696 19 150.616 17.6 150.616 15.18C150.616 13.42 149.616 12.22 148.056 11.72ZM144.216 7.44C145.796 7.44 146.656 7.98 146.656 9.08C146.656 10.18 145.796 10.74 144.216 10.74H140.996V7.44H144.216ZM144.776 16.56H140.996V13.1H144.776C146.456 13.1 147.356 13.66 147.356 14.84C147.356 16.04 146.456 16.56 144.776 16.56ZM160.689 4.16V9.38C159.909 8.5 158.789 8.08 157.469 8.08C154.429 8.08 152.089 10.24 152.089 13.62C152.089 17 154.429 19.16 157.469 19.16C158.909 19.16 160.049 18.7 160.829 17.76V19H163.809V4.16H160.689ZM158.009 16.6C156.449 16.6 155.249 15.48 155.249 13.62C155.249 11.76 156.449 10.64 158.009 10.64C159.549 10.64 160.749 11.76 160.749 13.62C160.749 15.48 159.549 16.6 158.009 16.6ZM168.396 6.74C169.556 6.74 170.336 5.98 170.336 4.94C170.336 3.98 169.556 3.26 168.396 3.26C167.236 3.26 166.456 4.02 166.456 5C166.456 5.98 167.236 6.74 168.396 6.74ZM165.896 23.04C168.496 23.04 169.956 21.46 169.956 18.98V8.24H166.836V19C166.836 20.06 166.336 20.56 165.556 20.56C165.036 20.56 164.576 20.42 164.236 20.18L163.396 22.44C163.996 22.86 164.936 23.04 165.896 23.04ZM176.249 8.02C176.249 6.96 176.749 6.46 177.669 6.46C178.149 6.46 178.589 6.6 178.929 6.84L179.749 4.58C179.169 4.18 178.249 4 177.369 4C174.689 4 173.209 5.58 173.209 8V8.48H171.549V10.88H173.209V19H176.329V10.88H179.009V8.48H176.249V8.02ZM187.928 6.74C189.088 6.74 189.868 5.98 189.868 4.94C189.868 3.98 189.088 3.26 187.928 3.26C186.768 3.26 185.988 4.02 185.988 5C185.988 5.98 186.768 6.74 187.928 6.74ZM185.428 23.04C188.028 23.04 189.488 21.46 189.488 18.98V8.24H186.368V19C186.368 20.06 185.868 20.56 185.088 20.56C184.568 20.56 184.108 20.42 183.768 20.18L182.928 22.44C183.528 22.86 184.468 23.04 185.428 23.04ZM190.982 5V7.6H193.782V19H197.022V5H190.982ZM203.894 16.36L207.114 13.32C209.074 11.5 209.454 10.26 209.454 8.9C209.454 6.36 207.374 4.76 204.254 4.76C201.734 4.76 199.774 5.78 198.694 7.36L201.054 8.88C201.734 7.94 202.754 7.48 203.954 7.48C205.434 7.48 206.194 8.12 206.194 9.22C206.194 9.9 205.974 10.62 204.734 11.8L199.334 16.9V19H209.914V16.36H203.894Z" fill="#737373"/>
<rect x="52.2979" y="29" width="41.8384" height="15" rx="6" fill="url(#paint0_linear_2_181)" fill-opacity="0.54"/>
<defs>
<linearGradient id="paint0_linear_2_181" x1="53.7242" y1="35.5" x2="73.495" y2="43.2949" gradientUnits="userSpaceOnUse">
<stop stop-color="#BF8C09"/>
<stop offset="0.520833" stop-color="#BD9E31"/>
<stop offset="1" stop-color="#AF751E"/>
</linearGradient>
</defs>
</svg>
