<svg width="257" height="28" viewBox="0 0 257 28" fill="none" xmlns="http://www.w3.org/2000/svg">
<path d="M7.84 8.42L8.74 10.02L6 11.04L8.74 12.06L7.82 13.7L5.54 11.9L5.96 14.8H4.12L4.5 11.9L2.22 13.74L1.26 12.04L3.98 11.02L1.26 10.04L2.18 8.4L4.52 10.2L4.12 7.28H5.98L5.54 10.2L7.84 8.42ZM17.9181 8.42L18.8181 10.02L16.0781 11.04L18.8181 12.06L17.8981 13.7L15.6181 11.9L16.0381 14.8H14.1981L14.5781 11.9L12.2981 13.74L11.3381 12.04L14.0581 11.02L11.3381 10.04L12.2581 8.4L14.5981 10.2L14.1981 7.28H16.0581L15.6181 10.2L17.9181 8.42ZM27.9963 8.42L28.8963 10.02L26.1563 11.04L28.8963 12.06L27.9763 13.7L25.6963 11.9L26.1163 14.8H24.2763L24.6563 11.9L22.3763 13.74L21.4163 12.04L24.1363 11.02L21.4163 10.04L22.3363 8.4L24.6763 10.2L24.2763 7.28H26.1363L25.6963 10.2L27.9963 8.42ZM46.5344 10.98L43.1144 22H40.7144L38.4944 13.86L36.2744 22H33.8744L30.4344 10.98H32.7544L35.0544 19.84L37.3944 10.98H39.7744L42.0144 19.8L44.2944 10.98H46.5344ZM50.5183 12.58C50.8516 12.02 51.2916 11.5867 51.8383 11.28C52.3983 10.96 53.0583 10.8 53.8183 10.8V13.16H53.2383C52.3449 13.16 51.6649 13.3867 51.1983 13.84C50.7449 14.2933 50.5183 15.08 50.5183 16.2V22H48.2383V10.98H50.5183V12.58ZM70.7141 10.98L67.2941 22H64.8941L62.6741 13.86L60.4541 22H58.0541L54.6141 10.98H56.9341L59.2341 19.84L61.5741 10.98H63.9541L66.1941 19.8L68.4741 10.98H70.7141ZM85.758 10.8C86.6246 10.8 87.398 10.98 88.078 11.34C88.7713 11.7 89.3113 12.2333 89.698 12.94C90.098 13.6467 90.298 14.5 90.298 15.5V22H88.038V15.84C88.038 14.8533 87.7913 14.1 87.298 13.58C86.8046 13.0467 86.1313 12.78 85.278 12.78C84.4246 12.78 83.7446 13.0467 83.238 13.58C82.7446 14.1 82.498 14.8533 82.498 15.84V22H80.238V15.84C80.238 14.8533 79.9913 14.1 79.498 13.58C79.0046 13.0467 78.3313 12.78 77.478 12.78C76.6246 12.78 75.9446 13.0467 75.438 13.58C74.9446 14.1 74.698 14.8533 74.698 15.84V22H72.418V10.98H74.698V12.24C75.0713 11.7867 75.5446 11.4333 76.118 11.18C76.6913 10.9267 77.3046 10.8 77.958 10.8C78.838 10.8 79.6246 10.9867 80.318 11.36C81.0113 11.7333 81.5446 12.2733 81.918 12.98C82.2513 12.3133 82.7713 11.7867 83.478 11.4C84.1846 11 84.9446 10.8 85.758 10.8ZM97.6392 10.8C98.4926 10.8 99.2459 10.9733 99.8992 11.32C100.566 11.6533 101.086 12.0733 101.459 12.58V10.98H103.759V22.18C103.759 23.1933 103.546 24.0933 103.119 24.88C102.693 25.68 102.073 26.3067 101.259 26.76C100.459 27.2133 99.4992 27.44 98.3792 27.44C96.8859 27.44 95.6459 27.0867 94.6592 26.38C93.6726 25.6867 93.1126 24.74 92.9792 23.54H95.2392C95.4126 24.1133 95.7792 24.5733 96.3392 24.92C96.9126 25.28 97.5926 25.46 98.3792 25.46C99.2992 25.46 100.039 25.18 100.599 24.62C101.173 24.06 101.459 23.2467 101.459 22.18V20.34C101.073 20.86 100.546 21.3 99.8792 21.66C99.2259 22.0067 98.4792 22.18 97.6392 22.18C96.6792 22.18 95.7992 21.94 94.9992 21.46C94.2126 20.9667 93.5859 20.2867 93.1192 19.42C92.6659 18.54 92.4392 17.5467 92.4392 16.44C92.4392 15.3333 92.6659 14.3533 93.1192 13.5C93.5859 12.6467 94.2126 11.9867 94.9992 11.52C95.7992 11.04 96.6792 10.8 97.6392 10.8ZM101.459 16.48C101.459 15.72 101.299 15.06 100.979 14.5C100.673 13.94 100.266 13.5133 99.7592 13.22C99.2526 12.9267 98.7059 12.78 98.1192 12.78C97.5326 12.78 96.9859 12.9267 96.4792 13.22C95.9726 13.5 95.5592 13.92 95.2392 14.48C94.9326 15.0267 94.7792 15.68 94.7792 16.44C94.7792 17.2 94.9326 17.8667 95.2392 18.44C95.5592 19.0133 95.9726 19.4533 96.4792 19.76C96.9992 20.0533 97.5459 20.2 98.1192 20.2C98.7059 20.2 99.2526 20.0533 99.7592 19.76C100.266 19.4667 100.673 19.04 100.979 18.48C101.299 17.9067 101.459 17.24 101.459 16.48ZM112.314 10.8C113.181 10.8 113.954 10.98 114.634 11.34C115.327 11.7 115.867 12.2333 116.254 12.94C116.641 13.6467 116.834 14.5 116.834 15.5V22H114.574V15.84C114.574 14.8533 114.327 14.1 113.834 13.58C113.341 13.0467 112.667 12.78 111.814 12.78C110.961 12.78 110.281 13.0467 109.774 13.58C109.281 14.1 109.034 14.8533 109.034 15.84V22H106.754V10.98H109.034V12.24C109.407 11.7867 109.881 11.4333 110.454 11.18C111.041 10.9267 111.661 10.8 112.314 10.8ZM123.742 22.18C122.876 22.18 122.096 22.0267 121.402 21.72C120.722 21.4 120.182 20.9733 119.782 20.44C119.382 19.8933 119.169 19.2867 119.142 18.62H121.502C121.542 19.0867 121.762 19.48 122.162 19.8C122.576 20.1067 123.089 20.26 123.702 20.26C124.342 20.26 124.836 20.14 125.182 19.9C125.542 19.6467 125.722 19.3267 125.722 18.94C125.722 18.5267 125.522 18.22 125.122 18.02C124.736 17.82 124.116 17.6 123.262 17.36C122.436 17.1333 121.762 16.9133 121.242 16.7C120.722 16.4867 120.269 16.16 119.882 15.72C119.509 15.28 119.322 14.7 119.322 13.98C119.322 13.3933 119.496 12.86 119.842 12.38C120.189 11.8867 120.682 11.5 121.322 11.22C121.976 10.94 122.722 10.8 123.562 10.8C124.816 10.8 125.822 11.12 126.582 11.76C127.356 12.3867 127.769 13.2467 127.822 14.34H125.542C125.502 13.8467 125.302 13.4533 124.942 13.16C124.582 12.8667 124.096 12.72 123.482 12.72C122.882 12.72 122.422 12.8333 122.102 13.06C121.782 13.2867 121.622 13.5867 121.622 13.96C121.622 14.2533 121.729 14.5 121.942 14.7C122.156 14.9 122.416 15.06 122.722 15.18C123.029 15.2867 123.482 15.4267 124.082 15.6C124.882 15.8133 125.536 16.0333 126.042 16.26C126.562 16.4733 127.009 16.7933 127.382 17.22C127.756 17.6467 127.949 18.2133 127.962 18.92C127.962 19.5467 127.789 20.1067 127.442 20.6C127.096 21.0933 126.602 21.48 125.962 21.76C125.336 22.04 124.596 22.18 123.742 22.18ZM138.006 8.1V18.12C138.006 19.36 137.626 20.34 136.866 21.06C136.119 21.78 135.132 22.14 133.906 22.14C132.679 22.14 131.686 21.78 130.926 21.06C130.179 20.34 129.806 19.36 129.806 18.12H132.106C132.119 18.7333 132.272 19.22 132.566 19.58C132.872 19.94 133.319 20.12 133.906 20.12C134.492 20.12 134.939 19.94 135.246 19.58C135.552 19.2067 135.706 18.72 135.706 18.12V8.1H138.006ZM153.135 22H150.855L143.995 11.62V22H141.715V8.08H143.995L150.855 18.44V8.08H153.135V22ZM163.569 14.86C164.316 14.9933 164.949 15.3867 165.469 16.04C165.989 16.6933 166.249 17.4333 166.249 18.26C166.249 18.9667 166.062 19.6067 165.689 20.18C165.329 20.74 164.802 21.1867 164.109 21.52C163.416 21.84 162.609 22 161.689 22H156.129V8.1H161.429C162.376 8.1 163.189 8.26 163.869 8.58C164.549 8.9 165.062 9.33333 165.409 9.88C165.756 10.4133 165.929 11.0133 165.929 11.68C165.929 12.48 165.716 13.1467 165.289 13.68C164.862 14.2133 164.289 14.6067 163.569 14.86ZM158.409 13.94H161.229C161.976 13.94 162.556 13.7733 162.969 13.44C163.396 13.0933 163.609 12.6 163.609 11.96C163.609 11.3333 163.396 10.8467 162.969 10.5C162.556 10.14 161.976 9.96 161.229 9.96H158.409V13.94ZM161.489 20.14C162.262 20.14 162.869 19.9533 163.309 19.58C163.749 19.2067 163.969 18.6867 163.969 18.02C163.969 17.34 163.736 16.8 163.269 16.4C162.802 16 162.182 15.8 161.409 15.8H158.409V20.14H161.489ZM167.967 16.44C167.967 15.3333 168.193 14.3533 168.647 13.5C169.113 12.6467 169.74 11.9867 170.527 11.52C171.327 11.04 172.213 10.8 173.187 10.8C173.907 10.8 174.613 10.96 175.307 11.28C176.013 11.5867 176.573 12 176.987 12.52V7.2H179.287V22H176.987V20.34C176.613 20.8733 176.093 21.3133 175.427 21.66C174.773 22.0067 174.02 22.18 173.167 22.18C172.207 22.18 171.327 21.94 170.527 21.46C169.74 20.9667 169.113 20.2867 168.647 19.42C168.193 18.54 167.967 17.5467 167.967 16.44ZM176.987 16.48C176.987 15.72 176.827 15.06 176.507 14.5C176.2 13.94 175.793 13.5133 175.287 13.22C174.78 12.9267 174.233 12.78 173.647 12.78C173.06 12.78 172.513 12.9267 172.007 13.22C171.5 13.5 171.087 13.92 170.767 14.48C170.46 15.0267 170.307 15.68 170.307 16.44C170.307 17.2 170.46 17.8667 170.767 18.44C171.087 19.0133 171.5 19.4533 172.007 19.76C172.527 20.0533 173.073 20.2 173.647 20.2C174.233 20.2 174.78 20.0533 175.287 19.76C175.793 19.4667 176.2 19.04 176.507 18.48C176.827 17.9067 176.987 17.24 176.987 16.48ZM183.441 9.52C183.028 9.52 182.681 9.38 182.401 9.1C182.121 8.82 181.981 8.47333 181.981 8.06C181.981 7.64667 182.121 7.3 182.401 7.02C182.681 6.74 183.028 6.6 183.441 6.6C183.841 6.6 184.181 6.74 184.461 7.02C184.741 7.3 184.881 7.64667 184.881 8.06C184.881 8.47333 184.741 8.82 184.461 9.1C184.181 9.38 183.841 9.52 183.441 9.52ZM184.561 24.16C184.561 25.24 184.288 26.02 183.741 26.5C183.208 26.9933 182.428 27.24 181.401 27.24H180.221V25.32H181.001C181.468 25.32 181.795 25.2267 181.981 25.04C182.181 24.8667 182.281 24.5733 182.281 24.16V10.98H184.561V24.16ZM192.175 12.84H190.135V22H187.835V12.84H186.535V10.98H187.835V10.2C187.835 8.93333 188.168 8.01333 188.835 7.44C189.515 6.85333 190.575 6.56 192.015 6.56V8.46C191.321 8.46 190.835 8.59333 190.555 8.86C190.275 9.11333 190.135 9.56 190.135 10.2V10.98H192.175V12.84ZM200.551 9.52C200.137 9.52 199.791 9.38 199.511 9.1C199.231 8.82 199.091 8.47333 199.091 8.06C199.091 7.64667 199.231 7.3 199.511 7.02C199.791 6.74 200.137 6.6 200.551 6.6C200.951 6.6 201.291 6.74 201.571 7.02C201.851 7.3 201.991 7.64667 201.991 8.06C201.991 8.47333 201.851 8.82 201.571 9.1C201.291 9.38 200.951 9.52 200.551 9.52ZM201.671 24.16C201.671 25.24 201.397 26.02 200.851 26.5C200.317 26.9933 199.537 27.24 198.511 27.24H197.331V25.32H198.111C198.577 25.32 198.904 25.2267 199.091 25.04C199.291 24.8667 199.391 24.5733 199.391 24.16V10.98H201.671V24.16ZM204.064 9.5V7.42H208.224V22H205.924V9.5H204.064ZM212.616 18.9C213.896 17.7933 214.903 16.8867 215.636 16.18C216.383 15.46 217.003 14.7133 217.496 13.94C217.99 13.1667 218.236 12.3933 218.236 11.62C218.236 10.82 218.043 10.1933 217.656 9.74C217.283 9.28667 216.69 9.06 215.876 9.06C215.09 9.06 214.476 9.31333 214.036 9.82C213.61 10.3133 213.383 10.98 213.356 11.82H211.156C211.196 10.3 211.65 9.14 212.516 8.34C213.396 7.52667 214.51 7.12 215.856 7.12C217.31 7.12 218.443 7.52 219.256 8.32C220.083 9.12 220.496 10.1867 220.496 11.52C220.496 12.48 220.25 13.4067 219.756 14.3C219.276 15.18 218.696 15.9733 218.016 16.68C217.35 17.3733 216.496 18.18 215.456 19.1L214.556 19.9H220.896V21.8H211.176V20.14L212.616 18.9Z" fill="#737373"/>
</svg>
