<svg width="32" height="38" viewBox="0 0 32 38" fill="none" xmlns="http://www.w3.org/2000/svg">
<path d="M30.1555 14.4245H28.619V10.928C28.619 5.22495 22.7877 0.584717 15.6203 0.584717C8.45283 0.584717 2.62153 5.22495 2.62153 10.928V14.4245H1.08498C0.542674 14.4245 0.102539 14.7747 0.102539 15.2063V36.8067C0.102539 37.2383 0.542674 37.5885 1.08498 37.5885H30.1555C30.6978 37.5885 31.138 37.2383 31.138 36.8067V15.2063C31.138 14.7747 30.6983 14.4245 30.1555 14.4245ZM15.6203 4.95523C19.7593 4.95523 23.1266 7.63438 23.1266 10.928V14.4245H8.11388V10.928C8.11388 7.63477 11.4812 4.95523 15.6203 4.95523Z" fill="#ACACAC"/>
</svg>
