<svg width="24" height="23" viewBox="0 0 24 23" fill="none" xmlns="http://www.w3.org/2000/svg">
<circle cx="11.5708" cy="11.4732" r="9.97317" fill="white" fill-opacity="0.06" stroke="white" stroke-width="3"/>
<g clip-path="url(#clip0_2_349)">
<path fill-rule="evenodd" clip-rule="evenodd" d="M15.9475 13.6C15.4605 13.3093 14.8246 12.9848 14.2563 13.2214C13.8166 13.4039 13.5325 14.0867 13.2484 14.4382C13.0995 14.6207 12.9304 14.6478 12.7004 14.5531C11.0498 13.8974 9.78475 12.7955 8.8715 11.2745C8.72267 11.0379 8.74973 10.8554 8.93915 10.6391C9.20974 10.3146 9.55475 9.94284 9.62916 9.5102C9.70357 9.07081 9.50063 8.56381 9.31798 8.17849C9.08797 7.67826 8.83091 6.96846 8.33708 6.69131C7.87707 6.42767 7.275 6.57639 6.8691 6.90763C6.16556 7.48222 5.82732 8.37453 5.83408 9.26684C5.83408 9.51696 5.86791 9.77384 5.92879 10.0172C6.07085 10.5986 6.34145 11.1461 6.64586 11.6666C6.87587 12.0587 7.12617 12.4373 7.39676 12.8091C8.28296 14.0056 9.37886 15.0466 10.6507 15.8307C11.2865 16.2228 11.9698 16.5608 12.6801 16.7974C13.4716 17.0611 14.1819 17.3314 15.041 17.1692C15.9408 17.0002 16.827 16.4459 17.1855 15.5806C17.2937 15.3237 17.3411 15.0398 17.287 14.7694C17.1584 14.2016 16.4008 13.8704 15.9475 13.6Z" fill="white"/>
</g>
<defs>
<clipPath id="clip0_2_349">
<rect width="11.4732" height="10.6537" fill="white" transform="translate(5.83423 6.55609)"/>
</clipPath>
</defs>
</svg>
