<svg width="164" height="113" viewBox="0 0 164 113" fill="none" xmlns="http://www.w3.org/2000/svg">
<path d="M105.078 48.4532C103.117 47.1823 100.514 47.7672 99.2608 49.7538C94.7555 56.8992 87.0901 61.1658 78.75 61.1658C65.3336 61.1658 54.4261 50.1027 54.4261 36.504C54.4261 22.9052 65.3336 11.8422 78.75 11.8422C85.8659 11.8422 92.4734 14.9668 97.059 20.3119L91.965 24.2395L106.868 26.2875L108.905 11.174L103.794 15.1155C97.6065 7.64498 88.5234 3.29511 78.75 3.29511C60.6933 3.29709 46 18.1965 46 36.502C46 54.8075 60.6933 69.7069 78.75 69.7069C89.9802 69.7069 100.301 63.9652 106.359 54.3495C107.609 52.3629 107.04 49.726 105.078 48.4532Z" fill="white"/>
<path d="M97.5359 40.5604C100.614 38.1753 103.443 35.6812 103.443 32.0788C103.443 29.3685 101.545 27.2769 98.0189 27.2769C96.0399 27.2769 94.0356 27.9272 92.6453 28.7995L93.4196 31.591C94.3309 31.022 95.5315 30.5581 97.0822 30.5581C98.6329 30.5581 99.4855 31.4523 99.4855 32.7013C99.4855 34.8128 97.2426 36.8747 93.7638 39.7495L90.0171 42.6818L89.5674 45.2017H101.437L102.049 41.8669L95.817 41.863V41.8114L97.5359 40.5604Z" fill="white"/>
<path d="M115.968 37.9315L117.893 27.5723H113.16L104.869 38.3101L104.392 40.9113H111.797L110.996 45.1898H114.603L115.407 40.9113H117.47L118 37.9235H115.968V37.9315ZM113.162 34.109L112.361 37.9334H108.729L108.757 37.8799L111.621 34.1407C112.451 32.9729 113.119 31.8666 113.894 30.6711H114.001C113.724 31.7774 113.403 32.9947 113.162 34.109Z" fill="white"/>
<path d="M88.8676 26.1309C88.4452 25.7245 87.7745 25.7403 87.3756 26.1686L81.0438 32.8797C80.3809 32.4455 79.5987 32.1938 78.7481 32.1938C78.7012 32.1938 78.6445 32.1997 78.5956 32.2017L69.9701 23.835C68.9239 22.812 67.2559 22.8517 66.2508 23.9163C65.2457 24.981 65.2848 26.6741 66.331 27.6873L74.5752 35.6812C74.5243 35.9468 74.497 36.2205 74.497 36.504C74.497 37.4318 74.7864 38.2844 75.2752 38.9902L72.6901 41.7321C72.2912 42.1584 72.3068 42.8325 72.7273 43.2429C72.9306 43.4431 73.1927 43.5363 73.4527 43.5363C73.7343 43.5363 74.0061 43.4253 74.2154 43.2072L76.8846 40.376C77.4497 40.6595 78.0813 40.8201 78.752 40.8201C79.0962 40.8201 79.4286 40.7785 79.7493 40.6972L81.6911 42.5787C82.2015 43.0704 82.8546 43.3143 83.5097 43.3143C84.2019 43.3143 84.8961 43.0387 85.4162 42.4935C86.4194 41.4288 86.3822 39.7396 85.3322 38.7245L83.0091 36.4683C83.0052 35.7327 82.8174 35.0388 82.4909 34.4381L88.9028 27.6377C89.2998 27.2095 89.2841 26.5413 88.8676 26.1309Z" fill="white"/>
<path d="M7.464 93.128C6.84 93.128 6.344 93.28 5.976 93.584C5.624 93.872 5.448 94.264 5.448 94.76C5.448 95.24 5.664 95.624 6.096 95.912C6.544 96.2 7.56 96.544 9.144 96.944C10.744 97.328 11.984 97.912 12.864 98.696C13.744 99.48 14.184 100.624 14.184 102.128C14.184 103.632 13.616 104.856 12.48 105.8C11.36 106.728 9.88 107.192 8.04 107.192C5.384 107.192 2.992 106.208 0.864 104.24L3.096 101.504C4.904 103.088 6.576 103.88 8.112 103.88C8.8 103.88 9.336 103.736 9.72 103.448C10.12 103.144 10.32 102.744 10.32 102.248C10.32 101.736 10.112 101.336 9.696 101.048C9.28 100.744 8.456 100.44 7.224 100.136C5.272 99.672 3.84 99.072 2.928 98.336C2.032 97.584 1.584 96.416 1.584 94.832C1.584 93.232 2.152 92 3.288 91.136C4.44 90.272 5.872 89.84 7.584 89.84C8.704 89.84 9.824 90.032 10.944 90.416C12.064 90.8 13.04 91.344 13.872 92.048L11.976 94.784C10.52 93.68 9.016 93.128 7.464 93.128ZM23.4474 107H19.7274L15.3354 94.088H19.0554L21.5754 101.888L24.0954 94.088H27.5754L30.0954 101.888L32.6154 94.088H36.3594L31.9674 107H28.2234L25.8474 99.968L23.4474 107ZM41.9837 107H38.3837V94.088H41.9837V107ZM38.6717 92.456C38.2717 92.04 38.0717 91.536 38.0717 90.944C38.0717 90.352 38.2717 89.856 38.6717 89.456C39.0877 89.04 39.5917 88.832 40.1837 88.832C40.7757 88.832 41.2717 89.04 41.6717 89.456C42.0877 89.856 42.2957 90.352 42.2957 90.944C42.2957 91.536 42.0877 92.04 41.6717 92.456C41.2717 92.856 40.7757 93.056 40.1837 93.056C39.5917 93.056 39.0877 92.856 38.6717 92.456ZM49.6875 93.344V94.208H52.8075V96.8H49.6875V107H46.0635V96.8H44.5515V94.208H46.0635V93.416C46.0635 92.008 46.4875 90.896 47.3355 90.08C48.1995 89.248 49.2635 88.832 50.5275 88.832C51.8075 88.832 52.9675 89.312 54.0075 90.272L52.7115 92.696C52.1835 92.088 51.5995 91.784 50.9595 91.784C50.5915 91.784 50.2875 91.92 50.0475 92.192C49.8075 92.448 49.6875 92.832 49.6875 93.344ZM59.3438 96.68V102.464C59.3438 102.96 59.4718 103.352 59.7278 103.64C59.9838 103.912 60.2878 104.048 60.6398 104.048C61.3118 104.048 61.8798 103.744 62.3438 103.136L63.6878 105.656C62.5678 106.68 61.3838 107.192 60.1358 107.192C58.9038 107.192 57.8558 106.784 56.9918 105.968C56.1438 105.152 55.7198 104.04 55.7198 102.632V96.68H54.2078V94.088H55.7198V90.224H59.3438V94.088H62.4638V96.68H59.3438ZM78.2342 90.224C80.8102 90.224 82.6822 90.728 83.8502 91.736C85.0342 92.728 85.6262 94.264 85.6262 96.344C85.6262 98.408 85.0182 99.92 83.8022 100.88C82.6022 101.84 80.7622 102.32 78.2822 102.32H76.0502V107H72.3062V90.224H78.2342ZM78.5702 99.08C79.8182 99.08 80.6662 98.832 81.1142 98.336C81.5622 97.824 81.7862 97.088 81.7862 96.128C81.7862 95.152 81.4902 94.464 80.8982 94.064C80.3222 93.648 79.4182 93.44 78.1862 93.44H76.0502V99.08H78.5702ZM98.9454 107H95.5614V105.44C94.6334 106.608 93.4814 107.192 92.1054 107.192C90.7454 107.192 89.6014 106.8 88.6734 106.016C87.7454 105.216 87.2814 104.16 87.2814 102.848C87.2814 101.52 87.7614 100.528 88.7214 99.872C89.6814 99.216 90.9934 98.888 92.6574 98.888H95.3454V98.816C95.3454 97.44 94.6174 96.752 93.1614 96.752C92.5374 96.752 91.8734 96.88 91.1694 97.136C90.4814 97.376 89.8974 97.68 89.4174 98.048L87.8094 95.72C89.5054 94.488 91.4414 93.872 93.6174 93.872C95.1854 93.872 96.4654 94.264 97.4574 95.048C98.4494 95.832 98.9454 97.072 98.9454 98.768V107ZM95.3214 102.08V101.456H93.0654C91.6254 101.456 90.9054 101.904 90.9054 102.8C90.9054 103.264 91.0734 103.624 91.4094 103.88C91.7614 104.12 92.2574 104.24 92.8974 104.24C93.5374 104.24 94.0974 104.048 94.5774 103.664C95.0734 103.264 95.3214 102.736 95.3214 102.08ZM104.295 112.088C103.031 112.088 101.839 111.576 100.719 110.552L102.351 107.888C102.959 108.48 103.583 108.776 104.223 108.776C104.559 108.776 104.847 108.608 105.087 108.272C105.327 107.952 105.447 107.608 105.447 107.24C105.447 106.872 103.783 102.488 100.455 94.088H104.295L107.439 102.128L110.583 94.088H114.423L108.423 109.304C108.071 110.184 107.519 110.864 106.767 111.344C106.031 111.84 105.207 112.088 104.295 112.088ZM118.795 100.544C118.795 101.6 119.091 102.464 119.683 103.136C120.291 103.792 121.059 104.12 121.987 104.12C122.931 104.12 123.699 103.792 124.291 103.136C124.899 102.464 125.203 101.6 125.203 100.544C125.203 99.488 124.899 98.624 124.291 97.952C123.699 97.28 122.931 96.944 121.987 96.944C121.059 96.944 120.291 97.28 119.683 97.952C119.091 98.624 118.795 99.488 118.795 100.544ZM128.827 100.544C128.827 102.416 128.179 103.992 126.883 105.272C125.587 106.552 123.955 107.192 121.987 107.192C120.035 107.192 118.411 106.552 117.115 105.272C115.819 103.992 115.171 102.416 115.171 100.544C115.171 98.672 115.819 97.096 117.115 95.816C118.411 94.52 120.035 93.872 121.987 93.872C123.955 93.872 125.587 94.52 126.883 95.816C128.179 97.096 128.827 98.672 128.827 100.544ZM139.829 101.048V94.088H143.453V107H139.829V105.296C138.933 106.56 137.773 107.192 136.349 107.192C134.941 107.192 133.757 106.752 132.797 105.872C131.837 104.976 131.357 103.656 131.357 101.912V94.088H134.981V101.12C134.981 103.104 135.709 104.096 137.165 104.096C137.885 104.096 138.509 103.84 139.037 103.328C139.565 102.8 139.829 102.04 139.829 101.048ZM151.148 96.68V102.464C151.148 102.96 151.276 103.352 151.532 103.64C151.788 103.912 152.092 104.048 152.444 104.048C153.116 104.048 153.684 103.744 154.148 103.136L155.492 105.656C154.372 106.68 153.188 107.192 151.94 107.192C150.708 107.192 149.66 106.784 148.796 105.968C147.948 105.152 147.524 104.04 147.524 102.632V96.68H146.012V94.088H147.524V90.224H151.148V94.088H154.268V96.68H151.148Z" fill="white"/>
</svg>
