<svg width="102" height="102" viewBox="0 0 102 102" fill="none" xmlns="http://www.w3.org/2000/svg">
<g clip-path="url(#clip0_13_136)">
<path d="M24.715 47.4319L7.96802 64.8599V94.2659C7.96802 95.0939 8.63902 95.7659 9.46802 95.7659H29.802C30.63 95.7659 31.302 95.0939 31.302 94.2659V49.1579L26.612 47.4319H24.715Z" fill="#7C4B00"/>
<path d="M66.135 61.0999H45.801C44.973 61.0999 44.301 61.7719 44.301 62.5999V94.2659C44.301 95.0939 44.973 95.7659 45.801 95.7659H66.135C66.964 95.7659 67.635 95.0939 67.635 94.2659V62.5999C67.635 61.7719 66.964 61.0999 66.135 61.0999Z" fill="#7C4B00"/>
<path d="M101.724 29.4899C100.947 29.8959 100.072 30.1109 99.194 30.1109C97.918 30.1109 96.673 29.6609 95.694 28.8409L92 25.7529L78.635 40.3329V94.2669C78.635 95.0949 79.307 95.7669 80.135 95.7669H100.469C101.298 95.7669 101.969 95.0949 101.969 94.2669V29.3369C101.885 29.3869 101.81 29.4449 101.724 29.4899Z" fill="#7C4B00"/>
<path d="M57.7971 54.0939C58.9411 54.5129 60.2211 54.2019 61.0451 53.3059L91.8841 19.6629L99.1011 25.6949C99.4541 25.9889 99.9481 26.0439 100.355 25.8309C100.762 25.6169 101.001 25.1829 100.96 24.7239L99.3961 7.23494C99.3411 6.60994 98.7901 6.14894 98.1651 6.20594L80.6751 7.76894C80.2171 7.80994 79.8291 8.12294 79.6931 8.55994C79.6461 8.70594 79.6311 8.85394 79.6441 8.99994C79.6701 9.29394 79.8111 9.57194 80.0471 9.76894L87.2761 15.8119L57.9801 47.7689L24.5351 35.4629C23.4171 35.0529 22.1621 35.3419 21.3371 36.1979L0.83709 57.5309C-0.31091 58.7259 -0.27291 60.6259 0.92109 61.7729C1.50409 62.3339 2.25309 62.6099 3.00009 62.6099C3.78809 62.6099 4.57409 62.3009 5.16409 61.6889L24.3051 41.7689L57.7971 54.0939Z" fill="#7C4B00"/>
</g>
<defs>
<clipPath id="clip0_13_136">
<rect width="101.968" height="101.968" fill="white"/>
</clipPath>
</defs>
</svg>
