<svg width="102" height="102" viewBox="0 0 102 102" fill="none" xmlns="http://www.w3.org/2000/svg">
<g clip-path="url(#clip0_2_21)">
<path d="M24.7148 47.432L7.96777 64.86V94.266C7.96777 95.094 8.63877 95.766 9.46777 95.766H29.8018C30.6298 95.766 31.3018 95.094 31.3018 94.266V49.158L26.6118 47.432H24.7148Z" fill="#7C4B00"/>
<path d="M66.1348 61.1001H45.8008C44.9728 61.1001 44.3008 61.7721 44.3008 62.6001V94.2661C44.3008 95.0941 44.9728 95.7661 45.8008 95.7661H66.1348C66.9638 95.7661 67.6348 95.0941 67.6348 94.2661V62.6001C67.6348 61.7721 66.9638 61.1001 66.1348 61.1001Z" fill="#7C4B00"/>
<path d="M101.724 29.4901C100.947 29.8961 100.072 30.1111 99.1938 30.1111C97.9178 30.1111 96.6728 29.6611 95.6938 28.8411L91.9998 25.7531L78.6348 40.3331V94.2671C78.6348 95.0951 79.3068 95.7671 80.1348 95.7671H100.469C101.298 95.7671 101.969 95.0951 101.969 94.2671V29.3371C101.885 29.3871 101.81 29.4451 101.724 29.4901Z" fill="#7C4B00"/>
<path d="M57.7968 54.0941C58.9408 54.5131 60.2208 54.2021 61.0448 53.3061L91.8839 19.6631L99.1008 25.6951C99.4538 25.9891 99.9479 26.0441 100.355 25.8311C100.762 25.6171 101.001 25.1831 100.96 24.7241L99.3959 7.23506C99.3409 6.61006 98.7898 6.14906 98.1648 6.20606L80.6749 7.76906C80.2169 7.81006 79.8288 8.12306 79.6928 8.56006C79.6459 8.70606 79.6308 8.85406 79.6438 9.00006C79.6698 9.29406 79.8108 9.57206 80.0468 9.76906L87.2758 15.8121L57.9798 47.7691L24.5348 35.4631C23.4168 35.0531 22.1618 35.3421 21.3368 36.1981L0.836846 57.5311C-0.311154 58.7261 -0.273154 60.6261 0.920846 61.7731C1.50385 62.3341 2.25285 62.6101 2.99985 62.6101C3.78785 62.6101 4.57385 62.3011 5.16385 61.6891L24.3048 41.7691L57.7968 54.0941Z" fill="#7C4B00"/>
</g>
<defs>
<clipPath id="clip0_2_21">
<rect width="101.968" height="101.968" fill="white"/>
</clipPath>
</defs>
</svg>
