<svg width="110" height="110" viewBox="0 0 110 110" fill="none" xmlns="http://www.w3.org/2000/svg">
<g clip-path="url(#clip0_2_63)">
<path d="M56.5511 37.7954V35.8622C56.5511 34.338 55.3161 33.103 53.792 33.103C52.2678 33.103 51.0328 34.338 51.0328 35.8622V37.8613C46.1226 39.1496 42.4864 43.6699 42.4864 49.0333C42.4864 54.3953 46.123 58.9141 51.0328 60.2017V71.8004C48.6401 70.5886 46.3702 68.3408 45.552 67.3744C44.5712 66.2082 42.8311 66.0573 41.6645 67.0385C40.4983 68.0189 40.3479 69.7594 41.3286 70.926C41.8529 71.5492 45.9515 76.2681 51.0332 77.7095V79.7571C51.0332 81.2813 52.2682 82.5163 53.7923 82.5163C55.3165 82.5163 56.5515 81.2813 56.5515 79.7571V77.8088C61.5691 76.5955 65.3116 72.0267 65.3116 66.5886C65.3116 61.1512 61.5691 56.5831 56.5515 55.3698V43.5474C59.0443 44.4807 61.3028 46.3919 62.153 47.2704C63.2066 48.3696 64.9507 48.4068 66.0511 47.355C67.1522 46.3017 67.1915 44.5554 66.1383 43.4536C65.638 42.9312 61.6743 38.9315 56.5511 37.7954ZM48.0043 49.0333C48.0043 46.7749 49.2283 44.8055 51.0324 43.7747V54.2886C49.2283 53.2585 48.0043 51.2899 48.0043 49.0333ZM59.7926 66.5889C59.7926 68.9328 58.4708 70.9631 56.5507 71.9572V61.2222C58.4711 62.2155 59.7926 64.2451 59.7926 66.5889Z" fill="#8C6005"/>
<path d="M98.0859 75.899C95.1031 75.899 92.3749 77.0038 90.2823 78.8219L82.4029 73.5692C84.9884 68.8933 86.4629 63.5211 86.4629 57.81C86.4629 50.9658 84.3461 44.608 80.7352 39.3527L86.0512 35.0991C87.9109 36.3003 90.1226 37.0008 92.4966 37.0008C99.066 37.0008 104.411 31.6561 104.411 25.0863C104.411 18.5166 99.0664 13.1716 92.4966 13.1716C85.9269 13.1716 80.5818 18.5162 80.5818 25.0863C80.5818 27.2786 81.1796 29.3332 82.2167 31.0998L77.2392 35.0826C71.2974 28.9532 62.9824 25.1371 53.7919 25.1371C45.7712 25.1371 38.4182 28.0438 32.7258 32.8572L22.1516 22.3794C23.2152 20.597 23.8285 18.5162 23.8285 16.2942C23.8285 9.72444 18.4842 4.37976 11.9148 4.37976C5.34468 4.37976 0 9.72444 0 16.2942C0 22.8636 5.34468 28.2086 11.9148 28.2086C14.2663 28.2086 16.4597 27.5207 18.3083 26.3397L28.8255 36.7613C24.0209 42.4514 21.1205 49.7981 21.1205 57.8104C21.1205 64.766 23.3064 71.2195 27.0262 76.5237L17.0465 84.8402C15.8508 84.2254 14.4974 83.876 13.0633 83.876C8.24253 83.876 4.32085 87.7976 4.32085 92.6181C4.32085 97.4385 8.24253 101.36 13.0633 101.36C17.8834 101.36 21.8047 97.4385 21.8047 92.6181C21.8047 91.2473 21.4869 89.9498 20.9225 88.7939L30.5623 80.7603C36.489 86.7591 44.7138 90.4825 53.7922 90.4825C58.0616 90.4825 62.1411 89.6584 65.8829 88.1622L68.3418 93.0794C67.002 94.4093 66.1706 96.2506 66.1706 98.2828C66.1706 102.328 69.4617 105.62 73.507 105.62C77.5526 105.62 80.8438 102.328 80.8438 98.2828C80.8438 94.2375 77.5526 90.9464 73.507 90.9464C73.4864 90.9464 73.4669 90.9493 73.4466 90.9493L70.8151 85.6867C74.0757 83.688 76.9596 81.1334 79.3358 78.1557L87.0607 83.3054C86.4897 84.6971 86.1726 86.2187 86.1726 87.8135C86.1726 94.3828 91.5169 99.7275 98.0867 99.7275C104.656 99.7275 110.001 94.3832 110.001 87.8135C110 81.2437 104.656 75.899 98.0859 75.899ZM92.4966 18.6902C96.0232 18.6902 98.8924 21.5598 98.8924 25.0867C98.8924 28.6137 96.0232 31.4828 92.4966 31.4828C88.9697 31.4828 86.1002 28.6137 86.1002 25.0867C86.1002 21.5598 88.9697 18.6902 92.4966 18.6902ZM13.063 95.8415C11.2853 95.8415 9.8388 94.3953 9.8388 92.6177C9.8388 90.8401 11.2853 89.3939 13.063 89.3939C14.8402 89.3939 16.286 90.8401 16.286 92.6177C16.286 94.3953 14.8402 95.8415 13.063 95.8415ZM75.3251 98.2832C75.3251 99.2864 74.5091 100.102 73.5066 100.102C72.5041 100.102 71.6885 99.286 71.6885 98.2832C71.6885 97.2803 72.5041 96.4651 73.5066 96.4651C74.5091 96.4651 75.3251 97.2803 75.3251 98.2832ZM11.9148 22.6899C8.38785 22.6899 5.51832 19.8208 5.51832 16.2942C5.51832 12.7672 8.38785 9.89808 11.9148 9.89808C15.441 9.89808 18.3102 12.7672 18.3102 16.2942C18.3102 19.8208 15.441 22.6899 11.9148 22.6899ZM53.7919 84.9642C38.8195 84.9642 26.6384 72.783 26.6384 57.81C26.6384 42.8369 38.8192 30.6554 53.7919 30.6554C68.7638 30.6554 80.9449 42.8366 80.9449 57.81C80.9446 72.7827 68.7638 84.9642 53.7919 84.9642ZM98.0859 94.2096C94.5594 94.2096 91.6902 91.3404 91.6902 87.8138C91.6902 84.2869 94.5594 81.4174 98.0859 81.4174C101.613 81.4174 104.482 84.2869 104.482 87.8138C104.482 91.3404 101.613 94.2096 98.0859 94.2096Z" fill="#8C6005"/>
</g>
<defs>
<clipPath id="clip0_2_63">
<rect width="110" height="110" fill="white"/>
</clipPath>
</defs>
</svg>
