<svg width="110" height="110" viewBox="0 0 110 110" fill="none" xmlns="http://www.w3.org/2000/svg">
<g clip-path="url(#clip0_13_117)">
<path d="M56.5511 37.7952V35.8619C56.5511 34.3378 55.3161 33.1028 53.792 33.1028C52.2678 33.1028 51.0328 34.3378 51.0328 35.8619V37.861C46.1226 39.1494 42.4864 43.6696 42.4864 49.0331C42.4864 54.395 46.123 58.9138 51.0328 60.2014V71.8002C48.6401 70.5884 46.3702 68.3406 45.552 67.3741C44.5712 66.2079 42.8311 66.0571 41.6645 67.0383C40.4983 68.0187 40.3479 69.7592 41.3286 70.9257C41.8529 71.5489 45.9515 76.2678 51.0332 77.7092V79.7569C51.0332 81.281 52.2682 82.516 53.7923 82.516C55.3165 82.516 56.5515 81.281 56.5515 79.7569V77.8085C61.5691 76.5952 65.3116 72.0264 65.3116 66.5883C65.3116 61.1509 61.5691 56.5829 56.5515 55.3696V43.5471C59.0443 44.4805 61.3028 46.3916 62.153 47.2702C63.2066 48.3694 64.9507 48.4066 66.0511 47.3548C67.1522 46.3015 67.1915 44.5551 66.1383 43.4533C65.638 42.9309 61.6743 38.9312 56.5511 37.7952ZM48.0043 49.0331C48.0043 46.7746 49.2283 44.8053 51.0324 43.7745V54.2884C49.2283 53.2583 48.0043 51.2897 48.0043 49.0331ZM59.7926 66.5887C59.7926 68.9325 58.4708 70.9629 56.5507 71.9569V61.2219C58.4711 62.2152 59.7926 64.2449 59.7926 66.5887Z" fill="#8C6005"/>
<path d="M98.0859 75.8989C95.1031 75.8989 92.3749 77.0037 90.2823 78.8218L82.4029 73.5691C84.9884 68.8932 86.4629 63.521 86.4629 57.8099C86.4629 50.9657 84.3461 44.6078 80.7352 39.3526L86.0512 35.099C87.9109 36.3002 90.1226 37.0006 92.4966 37.0006C99.066 37.0006 104.411 31.656 104.411 25.0862C104.411 18.5165 99.0664 13.1714 92.4966 13.1714C85.9269 13.1714 80.5818 18.5161 80.5818 25.0862C80.5818 27.2785 81.1796 29.3331 82.2167 31.0997L77.2392 35.0825C71.2974 28.9531 62.9824 25.137 53.7919 25.137C45.7712 25.137 38.4182 28.0437 32.7258 32.8571L22.1516 22.3793C23.2152 20.5969 23.8285 18.5161 23.8285 16.2941C23.8285 9.72432 18.4842 4.37964 11.9148 4.37964C5.34468 4.37964 0 9.72432 0 16.2941C0 22.8634 5.34468 28.2085 11.9148 28.2085C14.2663 28.2085 16.4597 27.5205 18.3083 26.3396L28.8255 36.7611C24.0209 42.4513 21.1205 49.798 21.1205 57.8102C21.1205 64.7659 23.3064 71.2194 27.0262 76.5236L17.0465 84.8401C15.8508 84.2253 14.4974 83.8758 13.0633 83.8758C8.24253 83.8758 4.32085 87.7975 4.32085 92.618C4.32085 97.4384 8.24253 101.36 13.0633 101.36C17.8834 101.36 21.8047 97.4384 21.8047 92.618C21.8047 91.2472 21.4869 89.9497 20.9225 88.7938L30.5623 80.7602C36.489 86.759 44.7138 90.4824 53.7922 90.4824C58.0616 90.4824 62.1411 89.6583 65.8829 88.1621L68.3418 93.0793C67.002 94.4092 66.1706 96.2505 66.1706 98.2827C66.1706 102.328 69.4617 105.62 73.507 105.62C77.5526 105.62 80.8438 102.328 80.8438 98.2827C80.8438 94.2374 77.5526 90.9463 73.507 90.9463C73.4864 90.9463 73.4669 90.9492 73.4466 90.9492L70.8151 85.6866C74.0757 83.6878 76.9596 81.1332 79.3358 78.1555L87.0607 83.3052C86.4897 84.697 86.1726 86.2185 86.1726 87.8133C86.1726 94.3827 91.5169 99.7274 98.0867 99.7274C104.656 99.7274 110.001 94.3831 110.001 87.8133C110 81.2436 104.656 75.8989 98.0859 75.8989ZM92.4966 18.6901C96.0232 18.6901 98.8924 21.5596 98.8924 25.0866C98.8924 28.6135 96.0232 31.4827 92.4966 31.4827C88.9697 31.4827 86.1002 28.6135 86.1002 25.0866C86.1002 21.5596 88.9697 18.6901 92.4966 18.6901ZM13.063 95.8414C11.2853 95.8414 9.8388 94.3952 9.8388 92.6176C9.8388 90.84 11.2853 89.3938 13.063 89.3938C14.8402 89.3938 16.286 90.84 16.286 92.6176C16.286 94.3952 14.8402 95.8414 13.063 95.8414ZM75.3251 98.2831C75.3251 99.2863 74.5091 100.102 73.5066 100.102C72.5041 100.102 71.6885 99.2859 71.6885 98.2831C71.6885 97.2802 72.5041 96.465 73.5066 96.465C74.5091 96.465 75.3251 97.2802 75.3251 98.2831ZM11.9148 22.6898C8.38785 22.6898 5.51832 19.8206 5.51832 16.2941C5.51832 12.7671 8.38785 9.89796 11.9148 9.89796C15.441 9.89796 18.3102 12.7671 18.3102 16.2941C18.3102 19.8206 15.441 22.6898 11.9148 22.6898ZM53.7919 84.9641C38.8195 84.9641 26.6384 72.7829 26.6384 57.8099C26.6384 42.8368 38.8192 30.6553 53.7919 30.6553C68.7638 30.6553 80.9449 42.8364 80.9449 57.8099C80.9446 72.7825 68.7638 84.9641 53.7919 84.9641ZM98.0859 94.2094C94.5594 94.2094 91.6902 91.3403 91.6902 87.8137C91.6902 84.2868 94.5594 81.4172 98.0859 81.4172C101.613 81.4172 104.482 84.2868 104.482 87.8137C104.482 91.3403 101.613 94.2094 98.0859 94.2094Z" fill="#8C6005"/>
</g>
<defs>
<clipPath id="clip0_13_117">
<rect width="110" height="110" fill="white"/>
</clipPath>
</defs>
</svg>
