<svg width="113" height="113" viewBox="0 0 113 113" fill="none" xmlns="http://www.w3.org/2000/svg">
<path d="M86.1555 54.4245H84.619V50.928C84.619 45.2249 78.7877 40.5847 71.6203 40.5847C64.4528 40.5847 58.6215 45.2249 58.6215 50.928V54.4245H57.085C56.5427 54.4245 56.1025 54.7747 56.1025 55.2063V76.8067C56.1025 77.2383 56.5427 77.5885 57.085 77.5885H86.1555C86.6978 77.5885 87.138 77.2383 87.138 76.8067V55.2063C87.138 54.7747 86.6983 54.4245 86.1555 54.4245ZM71.6203 44.9552C75.7593 44.9552 79.1266 47.6344 79.1266 50.928V54.4245H64.1139V50.928C64.1139 47.6348 67.4812 44.9552 71.6203 44.9552Z" fill="#ACACAC"/>
</svg>
